<?xml version="1.0" encoding="iso-8859-1"?>
<!-- Generator: Adobe Illustrator 19.0.0, SVG Export Plug-In . SVG Version: 6.00 Build 0)  -->
<svg version="1.1" id="Layer_1" xmlns="http://www.w3.org/2000/svg" xmlns:xlink="http://www.w3.org/1999/xlink" x="0px" y="0px"
	 viewBox="0 0 512 512" style="enable-background:new 0 0 512 512;" xml:space="preserve">
<rect x="9.481" y="411.243" style="fill:#F4661E;" width="493.037" height="69.531"/>
<path style="fill:#FFD248;" d="M502.519,44.63v366.617H9.481V44.63l158.025,158.025l57.268-57.268
	c-8.091-7.964-13.021-18.963-13.021-31.226c0-24.399,19.848-44.247,44.247-44.247s44.247,19.848,44.247,44.247
	c0,12.263-4.93,23.261-13.021,31.226l57.268,57.268L502.519,44.63z"/>
<rect x="388.741" y="351.194" width="37.926" height="18.963"/>
<path d="M344.494,189.247l-44.41-44.41c6.269-8.892,9.645-19.502,9.645-30.676c0-29.626-24.102-53.728-53.728-53.728
	s-53.728,24.103-53.728,53.728c0,11.174,3.375,21.783,9.645,30.676l-44.41,44.41L0,21.74V490.26h512V21.74L344.494,189.247z
	 M167.506,216.064l70.729-70.729l-6.81-6.704c-6.571-6.47-10.191-15.16-10.191-24.47c0-19.17,15.596-34.765,34.765-34.765
	c19.169,0,34.765,15.596,34.765,34.765c0,9.31-3.619,18-10.192,24.469l-6.81,6.704l70.731,70.731L493.037,67.521v334.246H18.963
	v-31.605h344.494v-18.963H18.963V67.521L167.506,216.064z M493.037,471.297H18.963v-50.568h474.074V471.297z"/>
<rect x="41.086" y="148.923" width="25.284" height="18.963"/>
<rect x="445.63" y="148.923" width="25.284" height="18.963"/>
<rect x="243.358" y="104.676" width="25.284" height="18.963"/>
<g>
</g>
<g>
</g>
<g>
</g>
<g>
</g>
<g>
</g>
<g>
</g>
<g>
</g>
<g>
</g>
<g>
</g>
<g>
</g>
<g>
</g>
<g>
</g>
<g>
</g>
<g>
</g>
<g>
</g>
</svg>
